HIERARCHY
ROOT root
{
	OFFSET	0	13.1	24.9
	CHANNELS 6  Xposition Yposition Zposition Xrotation Yrotation Zrotation
	JOINT spine_1
	{
		OFFSET	0	9.99999	0
		CHANNELS 3  Xrotation Yrotation Zrotation
		JOINT spine_2
		{
			OFFSET	0	112	-10
			CHANNELS 3  Xrotation Yrotation Zrotation
			JOINT spine_3
			{
				OFFSET	0	206.5	19.3
				CHANNELS 3  Xrotation Yrotation Zrotation
				JOINT spine_4
				{
					OFFSET	0	110.4	14.6
					CHANNELS 3  Xrotation Yrotation Zrotation
					JOINT neck_1
					{
						OFFSET	0	71.8	-50.3
						CHANNELS 3  Xrotation Yrotation Zrotation
						JOINT neck_2
						{
							OFFSET	0	86.2	-25.8
							CHANNELS 3  Xrotation Yrotation Zrotation
							JOINT head_ee
							{
								OFFSET	0	179.8	-8.7
								CHANNELS 3  Xrotation Yrotation Zrotation
								End Site
								{
									OFFSET	1	0	0
								}
							}
						}
					}
					JOINT left_clavicle
					{
						OFFSET	-43.2	22.4	-70.8
						CHANNELS 3  Xrotation Yrotation Zrotation
						JOINT left_shoulder
						{
							OFFSET	-93.9	-5.79999	48.7
							CHANNELS 3  Xrotation Yrotation Zrotation
							JOINT left_elbow
							{
								OFFSET	-291.4	-30.8	15.2
								CHANNELS 3  Xrotation Yrotation Zrotation
								JOINT left_lowarm_twist
								{
									OFFSET	-110.7	-3.89999	13.6
									CHANNELS 3  Xrotation Yrotation Zrotation
									JOINT left_hand
									{
										OFFSET	-110.7	-3.89999	13.6
										CHANNELS 3  Xrotation Yrotation Zrotation
										JOINT left_ee
										{
											OFFSET	-80.8	-5.10001	12.1
											CHANNELS 3  Xrotation Yrotation Zrotation
											End Site
											{
												OFFSET	1	0	0
											}
										}
									}
								}
							}
						}
					}
					JOINT right_clavicle
					{
						OFFSET	43.2	22.4	-70.8
						CHANNELS 3  Xrotation Yrotation Zrotation
						JOINT right_shoulder
						{
							OFFSET	93.9	-5.79999	48.7
							CHANNELS 3  Xrotation Yrotation Zrotation
							JOINT right_elbow
							{
								OFFSET	291.4	-30.8	15.2
								CHANNELS 3  Xrotation Yrotation Zrotation
								JOINT right_lowarm_twist
								{
									OFFSET	110.7	-3.89999	13.6
									CHANNELS 3  Xrotation Yrotation Zrotation
									JOINT right_hand
									{
										OFFSET	110.7	-3.89999	13.6
										CHANNELS 3  Xrotation Yrotation Zrotation
										JOINT right_ee
										{
											OFFSET	80.8	-5.10001	12.1
											CHANNELS 3  Xrotation Yrotation Zrotation
											End Site
											{
												OFFSET	1	0	0
											}
										}
									}
								}
							}
						}
					}
				}
			}
		}
	}
	JOINT left_hip
	{
		OFFSET	-82.8	-127.5	0.300001
		CHANNELS 3  Xrotation Yrotation Zrotation
		JOINT left_knee
		{
			OFFSET	-28.2	-396.7	2.2
			CHANNELS 3  Xrotation Yrotation Zrotation
			JOINT left_ankle
			{
				OFFSET	-11.7	-411.3	35.4
				CHANNELS 3  Xrotation Yrotation Zrotation
				JOINT left_toes
				{
					OFFSET	0	-60	-88.6
					CHANNELS 3  Xrotation Yrotation Zrotation
					JOINT left_foot_ee
					{
						OFFSET	-22.5	-16.5	-42.2
						CHANNELS 3  Xrotation Yrotation Zrotation
						End Site
						{
							OFFSET	1	0	0
						}
					}
				}
			}
		}
	}
	JOINT right_hip
	{
		OFFSET	82.8	-127.5	0.300001
		CHANNELS 3  Xrotation Yrotation Zrotation
		JOINT right_knee
		{
			OFFSET	28.2	-396.7	2.2
			CHANNELS 3  Xrotation Yrotation Zrotation
			JOINT right_ankle
			{
				OFFSET	11.7	-411.3	35.4
				CHANNELS 3  Xrotation Yrotation Zrotation
				JOINT right_toes
				{
					OFFSET	0	-60	-88.6
					CHANNELS 3  Xrotation Yrotation Zrotation
					JOINT right_foot_ee
					{
						OFFSET	22.5	-16.5	-42.2
						CHANNELS 3  Xrotation Yrotation Zrotation
						End Site
						{
							OFFSET	1	0	0
						}
					}
				}
			}
		}
	}
}
MOTION
Frames: 9
Frame Time: 0.02
1486.06 681.692 -592.017 -173.327 -70.2608 176.682 -1.33955 0.646315 4.75189 -1.32706 0.342984 4.78329 -1.28759 -0.777914 4.73217 -1.31882 -0.0216873 4.7955 -13.4064 3.57128 -2.84646 -13.4333 8.56678 -1.62417 -0.0 0.0 -0.0 -5.39154 22.7248 -4.90817 26.0334 -33.9029 69.3202 3.67708 -61.2176 2.17586 -32.2789 -2.16992 3.45281 -1.70749 6.76972 -8.33061 -0.0 0.0 -0.0 12.2248 20.6899 -24.4001 -27.3967 30.1952 -62.9086 0.250474 7.07313 -0.0154801 24.0902 -0.210908 3.04749 2.36284 15.8811 -9.10765 0.0 0.0 0.0 -11.4833 5.80839 20.9138 -21.2099 0.279297 3.22428 42.5225 24.4473 -5.38466 -37.9055 0.0 0.0 -0.0 0.0 -0.0 44.3567 7.49765 -0.347416 -23.395 -0.2399 -3.55725 38.4208 -21.6588 4.91936 9.07769 -0.0 -0.0 0.0 0.0 0.0 
1513.35 682.839 -588.404 -173.149 -70.1765 176.861 -1.24111 0.779984 4.7597 -1.22864 0.475888 4.79956 -1.17783 -0.642816 4.78012 -1.20968 0.119272 4.82157 -11.7616 3.56613 -3.11426 -11.771 8.77205 -2.00978 -0.0 0.0 -0.0 -5.88144 23.3018 -5.44005 24.7587 -34.1494 69.8322 3.38375 -59.1664 1.9213 -32.3561 -2.17731 3.4594 -1.5634 5.62052 -7.91497 -0.0 0.0 -0.0 12.1278 19.6293 -24.2533 -26.856 30.4757 -62.9118 0.222529 6.29073 -0.0122284 23.1101 -0.22746 2.92339 2.4569 15.9423 -9.71641 0.0 0.0 0.0 -12.526 5.57467 20.984 -21.4029 0.276328 3.25375 41.4947 24.9779 -5.30841 -38.9416 0.0 0.0 -0.0 0.0 -0.0 43.6126 7.43748 -0.396219 -25.4238 -0.191973 -3.86489 37.9821 -21.6187 4.87569 9.64265 -0.0 -0.0 0.0 0.0 0.0 
1542.54 685.766 -580.408 -172.259 -71.5015 177.632 -1.29983 0.719316 4.89161 -1.28661 0.40698 4.92735 -1.2401 -0.744981 4.88777 -1.27342 0.0353208 4.94396 -10.6533 2.57548 -4.39204 -10.6183 7.78304 -3.59848 -0.0 0.0 -0.0 -6.4497 23.8552 -6.07348 21.7458 -34.1996 69.775 3.32502 -58.7236 1.871 -32.0036 -2.14363 3.42925 -1.52117 4.79185 -8.01772 -0.0 0.0 -0.0 12.129 17.401 -24.3898 -26.0287 30.8916 -62.9121 0.210485 5.95276 -0.0109441 22.7309 -0.233294 2.87531 2.50875 15.6359 -10.2114 0.0 0.0 0.0 -13.6707 5.80033 20.6168 -21.9451 0.267459 3.33648 39.4408 25.6404 -5.13485 -40.3343 0.0 0.0 -0.0 0.0 -0.0 43.5703 8.32355 0.420085 -29.4918 -0.0631945 -4.4758 37.7979 -22.2422 4.8734 9.92835 -0.0 -0.0 0.0 0.0 0.0 
1577.21 682.679 -573.34 -176.264 -70.6487 173.318 -1.30143 0.849676 5.02964 -1.28752 0.528327 5.07336 -1.22822 -0.659354 5.05804 -1.26388 0.146669 5.09862 -8.60049 3.03509 -3.46494 -8.572 8.09655 -2.73114 -0.0 0.0 -0.0 -6.81782 24.6037 -6.35084 19.8002 -34.1586 70.2766 2.83102 -54.4985 1.45824 -30.572 -2.00876 3.30467 -1.45277 4.85483 -7.53501 -0.0 0.0 -0.0 11.9991 16.3149 -24.1441 -25.3716 31.6893 -62.1237 0.203329 5.75175 -0.0102144 22.2554 -0.240158 2.81496 2.48902 14.4096 -10.6469 0.0 0.0 0.0 -14.1721 5.23474 20.3346 -26.0135 0.176001 3.95397 37.2141 26.0479 -4.92501 -40.1761 0.0 0.0 -0.0 0.0 -0.0 40.6228 8.00119 1.1882 -31.2011 0.00380911 -4.72954 38.0396 -21.9716 4.89019 9.77079 -0.0 -0.0 0.0 0.0 0.0 
1605.25 679.358 -566.527 -179.409 -71.7439 170.424 -1.32769 0.576749 4.95812 -1.31406 0.260483 4.98469 -1.27996 -0.90477 4.90899 -1.31355 -0.119139 4.99005 -7.05887 3.43789 -2.27352 -7.0396 8.02653 -1.57446 -0.0 0.0 -0.0 -7.15605 24.09 -6.98796 17.9865 -34.0179 70.9472 2.42212 -50.1832 1.1343 -29.1848 -1.88111 3.18082 -1.35374 5.50722 -6.5822 -0.0 0.0 -0.0 11.7406 15.4502 -23.5894 -23.5118 32.6002 -62.4453 0.197611 5.59105 -0.00964937 21.9786 -0.243925 2.7798 2.44521 13.1758 -10.9146 0.0 0.0 0.0 -15.0411 5.2546 19.1072 -28.9764 0.0819078 4.39892 31.3457 26.187 -4.29248 -40.3618 0.0 0.0 -0.0 0.0 -0.0 38.6813 8.37902 2.39005 -34.7061 0.164765 -5.24317 38.9064 -21.0755 4.95154 9.39453 -0.0 -0.0 0.0 0.0 0.0 
1626.97 682.313 -564.638 179.785 -71.6438 169.122 -1.33782 0.810293 5.06836 -1.32367 0.486569 5.1095 -1.26757 -0.712029 5.08306 -1.3036 0.0985845 5.13161 -6.59869 3.24926 -2.74304 -6.56825 8.01968 -2.11707 -0.0 0.0 -0.0 -7.05055 23.8482 -6.91895 16.3518 -33.9539 71.3603 2.14015 -46.667 0.923264 -28.3764 -1.80812 3.10723 -1.37733 5.10991 -6.91894 -0.0 0.0 -0.0 12.1913 14.4077 -24.6544 -23.3655 33.1822 -61.2503 0.197629 5.59155 -0.00965106 21.7464 -0.246952 2.7503 2.40817 12.2836 -11.0667 0.0 0.0 0.0 -14.845 5.51039 19.264 -30.6644 0.0180439 4.65009 29.8045 26.4707 -4.12192 -40.2557 0.0 0.0 -0.0 0.0 -0.0 36.7841 8.6774 3.43549 -35.8044 0.221644 -5.40202 36.2624 -21.959 4.71283 9.23216 -0.0 -0.0 0.0 0.0 0.0 
1650.71 683.368 -558.175 178.16 -71.3362 167.011 -1.26649 0.89014 5.15305 -1.2519 0.560888 5.19908 -1.18795 -0.65307 5.18834 -1.22546 0.173369 5.2263 -5.03011 3.57829 -1.92017 -5.0006 8.02026 -1.33719 -0.0 0.0 -0.0 -7.38574 24.0075 -7.33827 13.3532 -32.9368 70.8692 2.05615 -45.5213 0.862741 -26.8342 -1.67179 2.96405 -1.31274 4.98953 -6.54667 -0.0 0.0 -0.0 12.0939 15.2432 -24.4041 -18.2474 34.9008 -61.178 0.244046 6.89339 -0.0146986 21.6181 -0.248574 2.73399 2.43519 11.3327 -11.6813 0.0 0.0 0.0 -13.2413 5.80423 18.0557 -32.274 -0.0497311 4.88778 28.2248 26.6352 -3.93883 -40.1908 0.0 0.0 -0.0 0.0 -0.0 34.2465 8.8014 4.34749 -36.565 0.262823 -5.5114 36.9762 -20.7713 4.75652 8.82276 -0.0 -0.0 0.0 0.0 0.0 
1675.58 686.174 -548.572 175.87 -71.0113 164.707 -1.61356 0.838833 5.31046 -1.59802 0.499711 5.3529 -1.53627 -0.780901 5.31926 -1.57572 0.0677168 5.37569 -6.20132 4.32208 0.448036 -6.19629 7.66798 1.2747 -0.0 0.0 -0.0 -7.94014 22.6533 -8.60112 10.4682 -33.0527 70.8638 1.78337 -41.4545 0.674896 -26.7841 -1.66742 2.95933 -1.02062 5.47558 -4.40337 -0.0 0.0 -0.0 11.5146 14.6738 -23.1039 -14.3811 37.1596 -62.7389 0.33995 9.55919 -0.0284246 20.8766 -0.257231 2.63967 2.50133 10.4582 -12.5293 0.0 0.0 0.0 -11.1984 6.01352 16.8894 -36.0 -0.232093 5.4302 19.8463 25.3215 -2.85368 -39.4245 0.0 0.0 -0.0 0.0 -0.0 31.4501 10.8131 3.52434 -38.1838 0.355283 -5.74234 41.9129 -19.1106 5.18039 6.36918 -0.0 -0.0 0.0 0.0 0.0 
1698.96 685.562 -543.258 175.13 -70.9801 163.915 -1.64546 0.825364 5.41905 -1.62926 0.47939 5.46042 -1.56786 -0.829274 5.41845 -1.60881 0.0355414 5.48124 -6.03333 4.50749 0.836113 -6.0267 7.71716 1.69086 -0.0 0.0 -0.0 -7.96787 22.9009 -8.5542 8.69806 -32.3232 70.9367 1.63315 -38.9704 0.57789 -24.6727 -1.48734 2.75736 -1.06291 4.85469 -4.95782 -0.0 0.0 -0.0 11.3233 12.7748 -22.7242 -10.3792 37.3114 -63.5627 0.433218 12.1124 -0.0459628 21.6067 -0.248717 2.73253 2.55187 11.4912 -12.4132 0.0 0.0 0.0 -10.8238 6.2985 16.4507 -37.9851 -0.343585 5.71414 21.156 25.5215 -3.02896 -39.415 0.0 0.0 -0.0 0.0 -0.0 30.8005 11.3722 3.4588 -42.0287 0.600849 -6.27991 41.6753 -18.9374 5.15553 8.11314 -0.0 -0.0 0.0 0.0 0.0 
